/* XPM */
static char * txx_xpm[] = {
"34 34 3 1",
" 	c gray9",
".	c gray70",
"X	c gray25",
"                                  ",
"                                  ",
"                                  ",
"                                  ",
"                                  ",
"                      .           ",
"                      ..          ",
"                      ...         ",
"                      ....        ",
"              .............       ",
"              ..............      ",
"              ...............     ",
"              ................    ",
"              ...............     ",
"           X  ..............      ",
"          XX  .............       ",
"         XXX          ....        ",
"        XXXX          ...         ",
"       XXXXXXXXXXXXX  ..          ",
"      XXXXXXXXXXXXXX  .           ",
"     XXXXXXXXXXXXXXX              ",
"    XXXXXXXXXXXXXXXX              ",
"     XXXXXXXXXXXXXXX              ",
"      XXXXXXXXXXXXXX              ",
"       XXXXXXXXXXXXX              ",
"        XXXX                      ",
"         XXX                      ",
"          XX                      ",
"           X                      ",
"                                  ",
"                                  ",
"                                  ",
"                                  ",
"                                  "};
