#define disk_width 16
#define disk_height 16
static unsigned char disk_bits[] = {
   0x00, 0x00, 0x00, 0x00, 0xfc, 0x3f, 0xfc, 0x3f, 0x0c, 0x30, 0x0c, 0x30,
   0x0c, 0x30, 0xec, 0x37, 0xec, 0x37, 0x6c, 0x36, 0x6c, 0x36, 0x6c, 0x36,
   0xf0, 0x3f, 0xf0, 0x3f, 0x00, 0x00, 0x00, 0x00};
