#define clock_width 16
#define clock_height 16
static unsigned char clock_bits[] = {
   0x00, 0x00, 0x00, 0x00, 0xe0, 0x07, 0x70, 0x0e, 0x78, 0x1e, 0x7c, 0x3e,
   0x7c, 0x3e, 0x7c, 0x3e, 0x7c, 0x20, 0x7c, 0x20, 0xfc, 0x3f, 0xf8, 0x1f,
   0xf0, 0x0f, 0xe0, 0x07, 0x00, 0x00, 0x00, 0x00};
