#define close-button_width 18
#define close-button_height 18
static unsigned char close-button_bits[] = {
   0x00, 0x00, 0x00, 0x00, 0x00, 0x00, 0x00, 0x00, 0x00, 0x00, 0x03, 0x00,
   0x00, 0x03, 0x00, 0x00, 0x03, 0x00, 0x00, 0x03, 0x00, 0x00, 0x03, 0x00,
   0xf8, 0x7f, 0x00, 0xf8, 0x7f, 0x00, 0x00, 0x03, 0x00, 0x00, 0x03, 0x00,
   0x00, 0x03, 0x00, 0x00, 0x03, 0x00, 0x00, 0x03, 0x00, 0x00, 0x00, 0x00,
   0x00, 0x00, 0x00, 0x00, 0x00, 0x00};
