#define info_width 16
#define info_height 16
static unsigned char info_bits[] = {
   0x00, 0x00, 0x00, 0x00, 0xf8, 0x3f, 0xf8, 0x3f, 0x78, 0x3c, 0x78, 0x3c,
   0xf8, 0x3f, 0x78, 0x3c, 0x78, 0x3c, 0x78, 0x3c, 0x78, 0x3c, 0x78, 0x3c,
   0xf8, 0x3f, 0xf8, 0x3f, 0x00, 0x00, 0x00, 0x00};
